@startuml
'
' Resource:  ProductOrder
' Source:    Product_Ordering_4.0.0_oas.yaml
' Generated: 2020-11-18 23:09:09+0100
'
hide circle
hide methods
hide stereotype
show <<Enumeration>> stereotype
skinparam class {
   backgroundColor<<Enumeration>> #E6F5F7
   backgroundColor<<Ref>> #FFFFE0
   backgroundColor<<Pivot>> #FFFFFFF
   backgroundColor #FCF2E3
   backgroundColor<<SubResource>> MistyRose
}

skinparam legend {
   borderRoundCorner 0
   borderColor red
   backgroundColor white
}

'sequence: 19
class ProductOrder <extends  \nEntity >  <<Pivot>> {
    cancellationDate : DateTime
    cancellationReason : String
    category : String
    completionDate : DateTime
    description : String
    expectedCompletionDate : DateTime
    externalId : String
    href : String
    id : String
    notificationContact : String
    orderDate : DateTime
    priority : String
    requestedCompletionDate : DateTime
    requestedStartDate : DateTime
    state : ProductOrderStateType
    @baseType : String
    @schemaLocation : Uri
    @type : String
}

'sequence: 20
class ProductOrderStateType <<Enumeration>> {
    acknowledged
    inProgress
    rejected
    held
    assessingCancellation
    pendingCancellation
    pending
    cancelled
    completed
    failed
    partial
}

'sequence: 42
class ProductOrderItem <extends  \nEntity >  {
    action : OrderItemActionType
    appointment : AppointmentRef
    billingAccount : BillingAccountRef
    href : Uri
    id : String
    itemPrice : OrderPrice [0..*]
    itemTerm : OrderTerm [0..*]
    itemTotalPrice : OrderPrice [0..*]
    payment : PaymentRef [0..*]
    product : ProductRefOrValue
    productOffering : ProductOfferingRef
    productOfferingQualificationItem : ProductOfferingQualificationItemRef
    productOrderItem : ProductOrderItem [0..*]
    productOrderItemRelationship : OrderItemRelationship [0..*]
    qualification : ProductOfferingQualificationRef [0..*]
    quantity : Integer
    quoteItem : QuoteItemRef
    state : ProductOrderItemStateType
    @baseType : String
    @schemaLocation : Uri
    @type : String
}

'sequence: 50
class QuoteRef <extends  \nEntityRef >  <<Ref>> {
    href : Uri
    id : String
    name : String
    @baseType : String
    @referredType : String
    @schemaLocation : Uri
    @type : String
}

'sequence: 59
class BillingAccountRef <extends  \nEntity >  <<Ref>> {
    href : String
    id : String
    name : String
    ratingType : String
    @baseType : String
    @referredType : String
    @schemaLocation : Uri
    @type : String
}

'sequence: 67
class AgreementRef <extends  \nEntityRef >  <<Ref>> {
    href : Uri
    id : String
    name : String
    @baseType : String
    @referredType : String
    @schemaLocation : Uri
    @type : String
}

'sequence: 75
class Note <extends  \nExtensible >  {
    author : String
    date : DateTime
    id : String
    text : String
    @baseType : String
    @schemaLocation : Uri
    @type : String
}

'sequence: 90
class OrderPrice <extends  \nEntity >  {
    billingAccount : BillingAccountRef
    description : String
    href : Uri
    id : String
    name : String
    price : Price
    priceAlteration : PriceAlteration [0..*]
    priceType : String
    productOfferingPrice : ProductOfferingPriceRef
    recurringChargePeriod : String
    unitOfMeasure : String
    @baseType : String
    @schemaLocation : Uri
    @type : String
}

'sequence: 98
class PaymentRef <extends  \nEntityRef >  <<Ref>> {
    href : Uri
    id : String
    name : String
    @baseType : String
    @referredType : String
    @schemaLocation : Uri
    @type : String
}

'sequence: 107
class RelatedParty <extends  \nEntityRef >  {
    href : Uri
    id : String [1]
    name : String
    role : String
    @baseType : String
    @referredType : String [1]
    @schemaLocation : Uri
    @type : String
}

'sequence: 115
class ProductOfferingQualificationRef <extends  \nEntityRef >  <<Ref>> {
    href : Uri
    id : String
    name : String
    @baseType : String
    @referredType : String
    @schemaLocation : Uri
    @type : String
}

'sequence: 124
class RelatedChannel <extends  \nEntityRef >  {
    href : Uri
    id : String
    name : String
    role : String
    @baseType : String
    @referredType : String
    @schemaLocation : Uri
    @type : String
}

'sequence: 19
'processing edges for ProductOrder
'sequence: 127
'rule: Item special case
ProductOrder *-right-> "1..*" ProductOrderItem : productOrderItem

'sequence: 130
ProductOrderStateType <-left[hidden]- ProductOrder

'sequence: 139
'rule: General above rule
QuoteRef "0..*" <--* ProductOrder : quote

'sequence: 141
'rule: General above rule
BillingAccountRef  <--* ProductOrder : billingAccount

'sequence: 143
'rule: General above rule
Note "0..*" <--* ProductOrder : note

'sequence: 145
'rule: General above rule
AgreementRef "0..*" <--* ProductOrder : agreement

'sequence: 147
'rule: General below rule
ProductOrder *-->  "0..*" OrderPrice : orderTotalPrice

'sequence: 149
'rule: General below rule
ProductOrder *-->  "0..*" PaymentRef : payment

'sequence: 151
'rule: General below rule
ProductOrder *-->  "0..*" RelatedParty : relatedParty

'sequence: 153
'rule: General below rule
ProductOrder *-->  "0..*" ProductOfferingQualificationRef : productOfferingQualification

'sequence: 155
'rule: General below rule
ProductOrder *-->  "0..*" RelatedChannel : channel



'layout of the core: [ProductOrder, ProductOrderItem] (seq=125)
'finished layout of the core (seq=135)
'y=9 : QuoteRef (10) BillingAccountRef (10) Note (10) AgreementRef (10) (seq=178)
'y=10 : ProductOrderItem (11) ProductOrderStateType (9) ProductOrder (10) (seq=179)
'y=11 : OrderPrice (10) PaymentRef (9) RelatedParty (8) ProductOfferingQualificationRef (7) RelatedChannel (6) (seq=180)
@enduml